<svg id="_024_HOLIDAYS" data-name="024_HOLIDAYS" xmlns="http://www.w3.org/2000/svg" viewBox="0 0 24 24"><defs><style>.cls-1{fill:#333;}</style></defs><path class="cls-1" d="M17,14a1,1,0,0,1-1-1,4,4,0,0,0-8,0,1,1,0,0,1-2,0,6,6,0,0,1,12,0A1,1,0,0,1,17,14Z"/><path class="cls-1" d="M7,18.9l-.2,0A6,6,0,0,1,8,7H9A1,1,0,0,1,9,9H8a4,4,0,0,0-.8,7.92,1,1,0,0,1-.2,2Z"/><path class="cls-1" d="M17,18.9a1,1,0,0,1-.2-2A4,4,0,0,0,16,9H15a1,1,0,0,1,0-2h1a6,6,0,0,1,1.2,11.88Z"/><path class="cls-1" d="M18,22H6a1,1,0,0,1-1-1V18a1,1,0,0,1,2,0v2H17V18a1,1,0,0,1,2,0v3A1,1,0,0,1,18,22Z"/><path class="cls-1" d="M12,19a1,1,0,0,1-1-1,1,1,0,0,1,.08-.38,1.15,1.15,0,0,1,.21-.33l.15-.12a.76.76,0,0,1,.18-.09L11.8,17a1,1,0,0,1,.91.27,1.15,1.15,0,0,1,.21.33A1,1,0,0,1,13,18a1,1,0,0,1-1,1Z"/><path class="cls-1" d="M20,22H4a1,1,0,0,1,0-2H20a1,1,0,0,1,0,2Z"/><path class="cls-1" d="M12,9a3,3,0,1,1,3-3A3,3,0,0,1,12,9Zm0-4a1,1,0,1,0,1,1A1,1,0,0,0,12,5Z"/></svg>